<mxfile host="app.diagrams.net" modified="2024-07-04T13:48:59.023Z" agent="Mozilla/5.0 (Windows NT 10.0; Win64; x64) AppleWebKit/537.36 (KHTML, like Gecko) Chrome/126.0.0.0 Safari/537.36" etag="SgZkZ61sg1ZUKB2gMzLU" version="24.6.4" type="github">
  <diagram name="Page-1" id="XszXcMKsPQDQE7B-hq8H">
    <mxGraphModel dx="880" dy="1560" grid="1" gridSize="10" guides="1" tooltips="1" connect="1" arrows="1" fold="1" page="1" pageScale="1" pageWidth="850" pageHeight="1100" math="0" shadow="0">
      <root>
        <mxCell id="0" />
        <mxCell id="1" parent="0" />
        <mxCell id="2KoEc0qU2KZLX_1ABQ_1-1" value="What is EBS?" style="text;html=1;align=center;verticalAlign=middle;whiteSpace=wrap;rounded=0;fontStyle=1;fontFamily=Courier New;fontSize=32;" vertex="1" parent="1">
          <mxGeometry x="30" y="-10" width="280" height="120" as="geometry" />
        </mxCell>
        <mxCell id="2KoEc0qU2KZLX_1ABQ_1-4" value="Provides Block storage&lt;div style=&quot;font-size: 26px;&quot;&gt;Independent of EC2 ,it is created and the attached to EC2&lt;/div&gt;&lt;div style=&quot;font-size: 26px;&quot;&gt;Acts similar to hard disk.&lt;/div&gt;&lt;div style=&quot;font-size: 26px;&quot;&gt;&amp;nbsp;&amp;nbsp;&lt;/div&gt;" style="text;html=1;align=left;verticalAlign=middle;whiteSpace=wrap;rounded=0;fontStyle=1;fontFamily=Courier New;fontSize=26;spacingLeft=-500;spacingBottom=500;" vertex="1" parent="1">
          <mxGeometry x="600" y="120" width="270" height="580" as="geometry" />
        </mxCell>
        <mxCell id="2KoEc0qU2KZLX_1ABQ_1-10" value="" style="shape=step;perimeter=stepPerimeter;whiteSpace=wrap;html=1;fixedSize=1;fillColor=#66FF66;" vertex="1" parent="1">
          <mxGeometry x="40" y="82" width="50" height="30" as="geometry" />
        </mxCell>
        <mxCell id="2KoEc0qU2KZLX_1ABQ_1-11" value="" style="shape=step;perimeter=stepPerimeter;whiteSpace=wrap;html=1;fixedSize=1;fillColor=#66FF66;" vertex="1" parent="1">
          <mxGeometry x="40" y="170" width="50" height="30" as="geometry" />
        </mxCell>
        <mxCell id="2KoEc0qU2KZLX_1ABQ_1-12" value="" style="shape=step;perimeter=stepPerimeter;whiteSpace=wrap;html=1;fixedSize=1;fillColor=#66FF66;" vertex="1" parent="1">
          <mxGeometry x="41" y="118" width="50" height="30" as="geometry" />
        </mxCell>
        <mxCell id="2KoEc0qU2KZLX_1ABQ_1-16" value="&lt;font style=&quot;font-size: 29px;&quot;&gt;EC2&lt;/font&gt;" style="rounded=0;whiteSpace=wrap;html=1;fillColor=#FFB366;" vertex="1" parent="1">
          <mxGeometry x="120" y="450" width="120" height="60" as="geometry" />
        </mxCell>
        <mxCell id="2KoEc0qU2KZLX_1ABQ_1-17" value="&lt;font style=&quot;font-size: 26px;&quot;&gt;Volume 1&lt;/font&gt;" style="ellipse;whiteSpace=wrap;html=1;fillColor=#FF9999;" vertex="1" parent="1">
          <mxGeometry x="330" y="320" width="120" height="80" as="geometry" />
        </mxCell>
        <mxCell id="2KoEc0qU2KZLX_1ABQ_1-19" value="&lt;font style=&quot;font-size: 26px;&quot;&gt;Volume n&lt;/font&gt;" style="ellipse;whiteSpace=wrap;html=1;fillColor=#FF9999;" vertex="1" parent="1">
          <mxGeometry x="350" y="590" width="120" height="80" as="geometry" />
        </mxCell>
        <mxCell id="2KoEc0qU2KZLX_1ABQ_1-20" value="&lt;font style=&quot;font-size: 26px;&quot;&gt;Volume 2&lt;/font&gt;" style="ellipse;whiteSpace=wrap;html=1;fillColor=#FF9999;" vertex="1" parent="1">
          <mxGeometry x="370" y="440" width="120" height="80" as="geometry" />
        </mxCell>
        <mxCell id="2KoEc0qU2KZLX_1ABQ_1-22" value="" style="endArrow=classic;html=1;rounded=0;exitX=1;exitY=0.75;exitDx=0;exitDy=0;" edge="1" parent="1" source="2KoEc0qU2KZLX_1ABQ_1-16" target="2KoEc0qU2KZLX_1ABQ_1-20">
          <mxGeometry width="50" height="50" relative="1" as="geometry">
            <mxPoint x="260" y="490" as="sourcePoint" />
            <mxPoint x="310" y="440" as="targetPoint" />
            <Array as="points">
              <mxPoint x="240" y="480" />
            </Array>
          </mxGeometry>
        </mxCell>
        <mxCell id="2KoEc0qU2KZLX_1ABQ_1-24" value="" style="endArrow=classic;html=1;rounded=0;exitX=0.75;exitY=1;exitDx=0;exitDy=0;" edge="1" parent="1" source="2KoEc0qU2KZLX_1ABQ_1-16" target="2KoEc0qU2KZLX_1ABQ_1-19">
          <mxGeometry width="50" height="50" relative="1" as="geometry">
            <mxPoint x="390" y="570" as="sourcePoint" />
            <mxPoint x="440" y="520" as="targetPoint" />
          </mxGeometry>
        </mxCell>
        <mxCell id="2KoEc0qU2KZLX_1ABQ_1-25" value="" style="endArrow=classic;html=1;rounded=0;entryX=0;entryY=0.5;entryDx=0;entryDy=0;exitX=0.583;exitY=-0.05;exitDx=0;exitDy=0;exitPerimeter=0;" edge="1" parent="1" source="2KoEc0qU2KZLX_1ABQ_1-16" target="2KoEc0qU2KZLX_1ABQ_1-17">
          <mxGeometry width="50" height="50" relative="1" as="geometry">
            <mxPoint x="200" y="440" as="sourcePoint" />
            <mxPoint x="440" y="520" as="targetPoint" />
          </mxGeometry>
        </mxCell>
        <mxCell id="2KoEc0qU2KZLX_1ABQ_1-26" value="Can have multiple volumes attached to a single EC2 instance" style="text;html=1;align=center;verticalAlign=middle;whiteSpace=wrap;rounded=0;fontSize=26;" vertex="1" parent="1">
          <mxGeometry x="580" y="500" width="250" height="30" as="geometry" />
        </mxCell>
        <mxCell id="2KoEc0qU2KZLX_1ABQ_1-27" value="EBS VOLUME CHECK" style="text;html=1;align=center;verticalAlign=middle;whiteSpace=wrap;rounded=0;fontSize=26;fontStyle=1" vertex="1" parent="1">
          <mxGeometry x="20" y="740" width="350" height="30" as="geometry" />
        </mxCell>
        <mxCell id="2KoEc0qU2KZLX_1ABQ_1-28" value="" style="shape=image;verticalLabelPosition=bottom;labelBackgroundColor=default;verticalAlign=top;aspect=fixed;imageAspect=0;image=data:image/png,iVBORw0KGgoAAAANSUhEUgAAANwAAADlCAMAAAAP8WnWAAAA0lBMVEX1hTb///+dUCX1gi/1gzL1gSz4hzf/+fT1fiP1gCqaTiX/+/edTyT849P3oGX//fv2iTybSx39696aSRf6wp32kUr+8unWcjDwgjXofTOZRhD4rnv838z3mlr82sP+8OapVyfBZiz7z7L2j0b7zK35tIb5vJX3pG32mVfk0sjNbS7u4dnNqJWsa0jFmoLUtaXddjG1XymnYz21fV+lXTPex7q6hmv5t4v6wJr4pGu+dkvidyzCYh+0Vhfeyb6nThCyd1fYu6vPfUq2ckrAkXjPrJkzkDuNAAARiUlEQVR4nM2daUPqOBuG0xUKZS0gmwgIIgIiLnjOmXkdndH//5fepGVpS/M0SRP0/jLOEQsXSZ41aZGmWrl6qT8YTBqN156v10ZjMhj0S/Wc8rdG6i7dqvcn09lls2oaTt5xHMvwZeEf845hVpuXs+mkX2+p+wRK4Cq5+vh1dlslPKZpokThXxDS6u3sdaxoFOXDVfqTXhMZlkGjijPil6Jmb9KvSP8okuHqg961ieccC1YE0XLM696gLvfTSIQr1iezap4f7ABo5Ku/J3WJAygNrt4o24Y42Z7PQLOJtPGTA5cb9Kp45cgQXoLV2UCOgZEBV39tWlnHLMrnNF9lDF9muOKgh42BPLIdn2P1BsVvhsuNy4ac6XgiwyiPM87OTHC5ya2klZaMZ91OMuFlgMNo8udjVKaTCU8YrjJuqkYL8JpjYc8nCtcvy7SPIJ5R7p8Vrj41Fa61uAxzKuYYROAqjap1PjQiq9o4E1zp8hyLLSrTuSydAa51g844I48y0A13WssL11du/mnCg8drWPjgKo3vGbZABmrweQUuuHr5u4YtkOmUucwmD9z43EbyVNb1WAlc8Zf1rcMWyLQa7MkCM1xr9hPYCN2M2WqywpWa3z4l97KarC6PEW5Q/UYrGZdRHciEm6AfMSX3MqsTaXCVm3NlAKwyjRsWj8cC9/q93i1JpvMqBS43db4bJUn5aXqKngqX6/1INoScXipdGlyu92NcQFxWKl0KXJF93Mw8g6QuXqeXEqzAcBV2NqPcyqWqdSmXbgrbTBCu8sq+3owyS8zXkLuAnVeQDoS74fgobHD1qlyv4tyIwk14Qi42OG0mOYwzoFgFgBtzxSWMcIO8XDjTBBI8OlyfL55khMs1JUc7JqJXVqhwV02+CcQIp93I9ptG84oXLveb80OwwpWkBwXWb5ozp8G98n4GVrhKWXpmaNGCaArcmPv7ZYUTuHQ6HcWoJMOV+N0RM9zVtfwmczW58JAIl7vknzrMcNpU/tAZl4lvngjHE5nww/UV5BnJkUoS3EBkybPDFeVGz7u3T6oZJcBdCflZdjitoWDozCRvlwAnlp5ywNVVlAmtHgvcQOx75YCrKMnuEybmCVxO0FJzwKlwdXhiXp8EKidw3KHJTjxwOclZXaDTQCUOJ+C+A/HACfmaVJ268hhcRTiZ5ILrK6nyGrNY0SEGJ74auOAURM9EVsymROFyt8JfqVHm6VdPlFRDzduoTYnCZXCv5mW/dCJqm/BKiUlBVnQvTgQumxWrnshMcKw7qSlkm9XI0EXgfmUyYuapbOrQCcWv6XJ+0eDkZ1oWdctWUXahKJB5HQ4xw3C/pE8V85JqZSTXnveywkMXgqvLT5GRRe3N123pb0YUyQ5CcNlWXLKcKQ1OU+PqkBNaCUe4loKBS4pm9xqrmZfhdzzCcXUGmEUrTOEvU41JCXcPDnBKkv+EeO8oBYUiIvNYLDrAye5Q7N8KUffZ9RXt28kfIswD3G9FbxWxzREVFZkUYxaHk90VPL7VJdWkqImecQxWj8FNlG3IcKgbtRRFz8iZROEqZWWbhIxzR8/I3GdfO7i+kncJ3qpK7Z/11RgxhEoROOktwZDy1La19DbrTtZNGE7Vu/gy6NGzou90n5EHcIKFWEZZVFdXV/S+uwJtADdVuQ8WqK5UZmrojOkRriVeF2KQBRzkUFJ7PsxLH05+Ez6kpA7FQaqi5yCP9OEUZcW+jvFCojh2l/EoyOp8ODUJQSAL3J2lqPaMU4M9XEtVXEnepQkfcVBUezarrR2cojKbLyttk7yioNZ3BgROtGvF8h7J2wxCulJzZMHvZ6FMDYJU5dPPbiiqPRNngOHqKi4e6Jg30qUmOjLRlQ83UDZwpsFwpEhV7Xnsw6nLCICqZUgq6qWBC0IZmqlpihbuqSopMSmk7IYUBpYO28n1ipLalHnbwnCKivYkSmC8IYaa2rNdx3B9VYFlnvXsrIJNilhOH8Op2IlFxNEkV1J7thoYrqeqGst+Hl/FJkVSdUOaoqKeA6VxMRUFNq+myixrqKjGWKakcTGpSCjN2wpSs5rT0riYVFhs87qF6lX5101P4+JS4Orw3EFKFvOxXM+ogYJ5afWRkr4c0NpJlopCUX6AlIQH8R1m6VIQvTtjpMJQWb952bSS/JFzGkjBV2ba/DdDUhA9WzdIQYBCPTgESX6b1eihmfyTNdeA/z7jJkUMJz9Aoe9mw94aaLPKXvzmpXy4+HbViKb0dpb01Mu8lQ9Hb/CTigK9zSq9UKQAzriks1VmFg5nab+VvR9fAZwDpHEkyDKpv5fdZsVwHblXtIBqnp9d0V8g/YhPRzIcmMb5PQ+cidB+P5bscmXD0Xd6HTZ0ApsUJaeWkuGAYTnExsAmRcltVslwDlDN22+dAyJPyfuYOuhBYoYPdeOO5oJ+m4+K1EKR/YAuJMJB/vu4ddRsUr8CqW1W+wLdyYOzgG5cuPdNT2WltlntO4lwJgLSuHDCD+xMkZmAYbh/pcFBN1HLhW9AYprU1pbMQpH5L/pX1kQAu3HRYsZ5jvhguD+yrgZ142KVX+CUpMQ2q/kH/WnLuZTRBNK4+GYQeq9c+EDwqdp/0H+S4CD/3bdjnxgIr+U1sdv/oSc5IQrYjTvZVQlU2+XVUTtbtP1LxoVMepqWuNOEHj2L3fYiSX9t0b2U+AvaVJnUfQN238hqs9oXS/T1twQ4OI1L6kaY9EKRLLi/l+jjfxLgoG5ccgOQ/hci9whKkv2/D/T2T/brsKRx8T+hFwAldS/a/7yheTe7uaTX6+gnoOiFpCs5FqXTnaOFntmiAOU6+o5D4IiPlP349oO+QK3nzHkB1I2j1pGBjoKU6Nm+e2yh4mqU8TJGjz5wwBZmemdZzm600aqCtPdhtouA3bgxvSkNxDRSeobDdw1pn7VsFgXqxsEHoKgmpSTBGXRqnxjuy8tURoHTOGgI6IWiYvY2q33hrTHcvDvKAgelcfANEYAD8tnbrPaoO8dwC3eYIesBu3Epe/rpxbLsxzjaQ3dBdsqu3AyLDtpUWUp50ioUPWf1Bh13RXbKVrY1cU8HpnGpJ1lsvuiZ4+Fi9l1tS/Y4a0tvI77o+NK4mPLU9Vo5NbOGhWbMs9XeeEt/6/1LTXheQnvrc7epXzQQt8UKRabhXP6qV5hna8etvfhwC70g6AzSu3FpF6CalHp4vRpOddYnhov1fId9UdBbwVmeVU1wXkJ3LmfaqkYf+eNpVtMyyuPWfjYw0m1q78FZHu3eE3MG4KZKphAKiACCNqtpWM3X0nHyMuZ6Hde71wK4D08XmpfQpkrGG1nQj9eRyM3E03HQ4r+sfaF7Hzs4vOg2AmwGmMaxfcXGjFp7fs1bt42TNc1W1twU9MUOTlvVdAF7mXiP2p2YqzwG1SSVpkluhunsNbaVK20Pt/QK/H7cEkvjYmJ6vk5ILHbKvisQL7eDm3cL3CaFdtfr4Ptlf2wK1GJIEsOmgPawgKPmPVzr0S3wVlLANI4jlYZazUlKn/D2Q8F9bB3gcMJa4HR1wF1O+Ipz4A0AkpT6xdmbAk5Uj3Bvnu52uOhAN8CzWca0mU4QHpVYwA6zdXTdewvB5fC85EpZwaXCV+2H9p6KfHX2CM/K8P1QcJCic5kUqBtXinfjYBllTpOSsimgPdT98OQI91LTebwBeHdc3gKIwflsWLisif2AXnuLwBVXNQ5vYJqAG+A+YgLtYkwSbIuxH6itihE47cvjGDro4/DfLyDxhvWQoJicDJz3pUXhFrrLvOrgNI6/cAUt4CSVgGvhFec+L2Jw2hP7qsucxsVklPnggNMj/op72r/wAPfW1XWXaeiAeqPgLmx6mzVZ9Oiu7ep69+0EDpsUxqGDqnli9yOEn0V2KuqWWuzj9IM5Cd+ZdO3hoWPIfMCzcWJ7sLmjZ1pW18ED560PLzvC5Z5dvcDQzpKSxsWU53F1xUHvmnIdPHDuc9I9ZbUlWXWpyQEU6ArvdAXarHGVbq4tyrvYD2TFLY+vDcEtHt30egOcxon2L8CDWyFdjcs2/Ym27Q0euMfF8eXhO3Av8apLsyngpkrxjijLAd7cYHoNPauXuAHdCw1cBK6FV52ug6mPeDcOVvqNHOqNSwN8orlNrIn7HC6WRe567w8dODHFu3FpAk1KazBDqQ9Y3sQHLva8AhyDgbV14xbIBjK1nYDpXixNm/lUS0Uq6Pjj059XQMJnvTCkT0z6Zrus54WpYc/VpGyB03HH1hmSgfuK/G3sGSE4TAEmpvEbWBkZ+9iJ0XNu0KvSDH9MZFLWVtAzQrSXrgtYTCitzLoz5rTNWqnfNGEbcpRvKV3vJXqF+HN5cHJAtZhgGpd5r13sNGtr8ttifkg7KQrhgXuCn8ujzX2bsklKD0A3kP2gSvjxHsXBlHU6+moPfWsyj32ok2dh3WObkhxjGr3TZ9Ps1c++edc8WGLs0kzmQfOFY0r9UBYC4HK+J0/0B6ZDfU4432dJVhCR58YMLi0q3wtEImYanPbmEbr0CFq6yJLuv1Ydrkcqo128jK3J2wlKwpMDP/2JCXg7RTKvuacjUeDhdO/zlCQBbvFILKZQPzKbBMiIiIfTa+FsAIAjezdoRuUHyjcm/s4MJrjAYup83YPvks+WYCmpcH4UhiXxVKQi+ZGJHi4KpcIFrhwPtswDrSpkX/iDcOq+ITjto+v/ldgWjrNpx6Z3P5IpaM8TD5bdz6azL/z5RVlwAFzuaUd3fmfOKvsh+ITeE++T4Hfe7gevu/24JXq4FLi9UfmpM3O/3mjGBIbTPmo/mO7A5m/y4ofT1t6O7u67UU4V+DfMtgYAIDjtvhvQ/bxIbLRj69IMZTpc5X7n7vRN+wdNTbu92X2s7j1YywXhtMrnjq7wg+jszqawY0tIc9jhtOJ2t+4Kw5/i8OyH4X69bVMehpACp+W2O2decH+IWblzD2xpLcs0OEy3X3eF0fdPTbu9MyV4TqaypcNpuc+dzfwBU/MwJbGd/ExvNafDHT2CXsAe7xvxbHSnH9hAH8ABV1nuvTm2mmevGx3ZDlZSd2tLlhuzs8DhWEU/0LnfNHj2wZKQeBKKS3jhtBe9pn/r4IWGDX+UpGqQOJw2fzxOTffsZhMbyeOwefQcRxBOa20PdNhsXpxzbtroYngYNuzemO9czgynFZfd49QsbB7OhWejh03hOCW7y7RnNInA4YX37OkHPHd0nqVnd0b6AU33nhmXGzectnjvukc8HeMp5rOjaK73zrrc+OGwx3MPUzPAUzk5bRRB02vuF/NjRwTgsNV8P9oVH0/Z2sNrLYKGh41eLZEDp+Xuw4OH154a00LMiBtCw87tnnPfogAcHrxVaOURyzm8a8tdfLbdvhsWwmhud8U7bGJwWuVL96J4eHZK47OD+RhB83TO1SYOh83mZ60WxiPDJ4UPj9nDaBheaiRKdj+5jGRGODw3n7zw0vONC+HLsv5sdEqGF5v3JDAjM8FplY/HbhyPjN8Fdn4CgPiPOheELI7WffwQmZHZ4HA8tl7FR48AusO7hw7iICQv7TzcDd34mJFRW63Zoy2ZcNgtfGA895QPA44wYTsNkfy6jblGQ7cQHzKy1rzVB7f5lwZH8N5rp3g+ICbcBIg7jpD8f/KxNj7XCRhBq71nQ8sMhyfn29bzEvB2hLqLGTej0d0F0cOD/5+70WiDqVw9mYuged72LcOElASHtbh/TJidUchA0Z9pcrEVuRcz/lHJgMOz82X7DPKxC680ffuScT7uJAcOa/H1pGfmw2Tu03ohbPtjkgaHV99ivX3u1lxBQBfPRl0imSYVjmiB52etm2hA4RHDf/S8fZGx0EKSDEc0X38+4vnFOISu/9LV51o0xgKkAA6HZrnFx/12pXc9Dw+im0RJ/rVW87yuvtrefyzkGJC4lMD5qrQW8zVGfHyued0u5sSgRPgH8r+150eMtZ4vWhIXWUzq4PbKLebzt7f1crnc+sI/rN/e5nNFoxXW/wE5rWFnqYXiPwAAAABJRU5ErkJggg==;" vertex="1" parent="1">
          <mxGeometry x="523.14" y="840" width="76.86" height="80" as="geometry" />
        </mxCell>
        <mxCell id="2KoEc0qU2KZLX_1ABQ_1-29" value="" style="shape=image;verticalLabelPosition=bottom;labelBackgroundColor=default;verticalAlign=top;aspect=fixed;imageAspect=0;image=data:image/jpeg,/9j/4AAQSkZJRgABAQAAAQABAAD/2wCEAAkGBw0NDQ0NDQ0PDg4ODg8PDg4NDQ8NDQ0NFRIWFxURFRYkHSgsGBolGxMVIT0lJikrLi8uGB8zODMtOCktLisBCgoKDg0OGhAQGy4lHSUrLS01LS8tLS0tLS0vMS0tLSstLS0tLSsrLS0tMCstLS0tLS0tLS0tKy0tLS02LSs3Lf/AABEIAMIBAwMBIgACEQEDEQH/xAAcAAEAAgIDAQAAAAAAAAAAAAAAAQUEBwMGCAL/xABAEAABAwICBAkICQQDAAAAAAAAAQIDBBEFMQYSIXEzQVFhcoGCscITIjVDUpGywQcUIyQyQmJzoZKz0fB04fH/xAAZAQEAAwEBAAAAAAAAAAAAAAAAAgMEAQX/xAAmEQEAAgIBAwQCAwEAAAAAAAAAAQIDETEEIUESMkNRM4EiI2ET/9oADAMBAAIRAxEAPwDeIIAEggASCABIIAEggASCABIIOPy7Nfyeu3yltbU1k19XltyAcoIAEgEASCABIIJAAgASCABIIAEggkACABIIAEggkACABIIAEgAACABJU47pFR4e29TMjXKl2xN8+Z6cqN5Nma7OctTUP0vekof+HH/dlK8lprXcOTOkaQfSRV1GtHSN+qxLs17o+ocm/JnVdecoMEkc500jnOc9XMcr3OVXq7ztquzuU5bYFlL2PEefmtNq7lXaezuOG6WVsFkV/l2J+WbznW5nZ++52vDdNKSWyS61O79fnR36SfNENcEFWPqclPO0YvMN1Qyte1HMc17Vyc1Uc1dyn2aao66andrQyvjXj1XWRd6ZL1nZ8N05lbZtTEkie3FZj+tuS/wbcfWUn3dk4yQ78Csw3HqSqskUya6+rf5knuXPquWRrraLRuJWJBAOiQQAJBAAkEACQQSABAAkAAAQAJBBIAEACQAAB8uciIqrsREuq8iHR8Y+k2iiu2lY+qdxO2ww33ql16ktzkbWivJt3o1B9L3pKH/hx/3ZTnw/T7EZnyPVYWtTV1YmxeYiLfjVbquzlOv6a4tJW1McsjWtc2nbHZl0atnvW+1Vt+Iy5M9bfxjlCbRPZQFtgXrex4ipLbAspex4jLk9soTwtQQDKrSCAALjDdJK2msjZddierm+0b1LmnUpTglW01ncS7E6bJ0f0rZWSNgdE6OVUVUsqPjWyXXbmnuOyGsdB/SEXQl+BTZp63S5LXpuy6k7hIIJNCYCCQAAAAgASAAAAAAAAAAAAAAADhq+Ck/bf3KebGZJuQ9J1fBSdB/cp5sZkm5DL1HMIWXGBZS9jxHBjfCt6Cd6nPgWUvY8RwY3wregneph+RX5YBbYF63seIqS2wL1vY8RLJ7ZdnhaAkGVWEEgACCQL7Qf0hF0JfgU2cax0H9IRdCX4FNnHqdF+P8Aa7HwAA2LAAAAAAAAAAAAAAAAAAAAAAAAHDV8FJ+2/uU82MyTch6Tq+Ck/bf3KebGZJuQy9RzCFlxgWUvY+Zw43wregnepzYFlL2PmcON8K3oJ3qYfkV+VeW2BZS9jxFSW2Bet7HiJZPbLs8LQEgyq0EggAASBfaD+kIuhL8CmzjWOg/pCLoS/Aps49Tovx/tdj4AAbFgAAAAAAAAAAAAAAAAAAAAAAADhq+Ck6D+5TzYzJNyHpOs4KT9t/cp5sZkm5DL1HMIWXGBZS9j5nDjfCt6Cd6nNgWUvY+Zw43wregneph+RX5V5bYF63seIqS2wL1vY8RLJ7ZdnhaEkAyq0gAAAAL7Qf0hF0JfgU2cax0H9IRdCX4FNnHqdF+P9rsfAADYsAAAAAAAAAABBIAAAAAAAAAAAAcNXwUnQf3KebGZJuQ9J1fBSftv7lPNjMk3IZeo5hCy4wLKXseI4cb4VvQTvU5sCyl7HiOHG+Fb0E71MPyK/KvLbAvW9jxFSW2Bet7HiJZPbLs8LQFbVYlJFK5qNjciatkejuNEXiVDlh0jRPxUcLtzpG96qVRimY2j6WaDNp8Wjexr0pIm6yXstnW/g+1xZ/5Y4W7mf9kZrEeXNMBNp9theuTHLuaqmUuLVHE9G9Fjf8HG7EJ1zlf1Lq9xz+J2W+h0To66N8jXMYjZLue1WNS7VttU2G7EKdM54k3ysT5mn3TyLm9673Kp8GjF1P8AzrqISrfUNxQ4jTyO1I54nvW6oxkrHOsmexFMo1noJ6QZ+3J3GzD0MGWclfVK2s7gABckAAAAAAAAAAAAAAAAAAAAcElXE2+tIxLbFRXpe/INiavgpOg/uU82MyTch6GrMWp/Jvaj9ZVY5ERrXLdbctjz/PSyw2bLG+NcrParb7uUyZ5iZjSFllgWUvY+Zw43wregnepzYFlL2PmcON8K3oJ3qYvkV+VeW2Bet7HiKktsC9b2PESye2XZ4YmK8O/s/ChiGXivDv7PwoYhKvtgjh2LD+Bj6JkGPh/Ax9EyDJbmUJAAccAAB2HQX0gz9uTuNmGrNEalIaxj3IqojHpZLX2obAZjlOuaub0m37rnp9HaIx6n7XY57LMGLHiMDspWda6veZDHo5LtVFTlRbobImJWPoAHQAAAAAAAAAAAAAAAANC6Q1s0GKV6wyvjX63NfVdZF89c0yXrN9Gg9NKWWLEqxZI3sSSolfGr2q1JGK66OavGm3iM/UcQjZmUOmUzbJPG2VPaZ9m/fbJf4OwUmP0VSmosjWq7OOdEbfm27F95rgGXaDZ8eD0jXK5kDG61r6t0avJsvbjKbSTRuSeRslP5NqNjRixr5iqqKq3Rbc/HyHVaHFKmn4GZzU9i+tH/AErsOw0OmjkslRCi/rhWy/0r/kdh12swypg4aF7E9q2sz+pNhl4FlL2PEd5oMapaiyRzN1l/I7zH+5c+o50oYEcr0hjRzrXVI2oq241OWp6o0S1pivDv7PwoYh3rHNFvrMr545tR7kbdjmXZsajUsqZZcinW6zRythuqwrI1PzQr5RPdn/AiNRoZmH8DH0TJPnCqOV8UaNjdsSy3TVRFvxqpbwYG9fxvRvMnnKZvRaZ7QhpVH1HG5y2a1XLyNRVU7FBhMDM2q9eV63T3GW58cTdqtY3qahOME+ZPSoIMHmd+JEYn6luvuQz4MEib+Nznr/S3/esVGNxt2MRXry/hb/vUVtRisz/zaicjNn85nf66/wCu9oXirBTp+SP4l+amFUY41NkbFdzu81Pd/wCFGq32rmQRnNPjs56mXUYhNJm9UT2WeahsfQz0dTbpP7rzVyJdURNqrsREzVTauicL46CnZIxzHIj7tcitcl5HKl04tioX9HMzkmZ+ksfK3AB6a4AAAAAAAAAAAAAAAAMeuoYamNYp4mSxrm2RqOS/LzLzmQANbaQfRg1byYdLqrn9XnVVbubJmnXfehrvEsNqKSTyVTC+F/Ej02OTla7Jyc6Kp6NMeuooamNYp4mSxrmyRqOTfzLzlF8ETwjNXnAGztIPowautJh0uouf1edyuZubJmnavvQ13iWG1FJJ5KphfC/iR6bHJytdk5OdFUzWpavKMxpiljQ47V09kZMqtT8kn2jN23LqsVwIuO50OmbFslRErF9uJdZu/VXan8nYaLEaeo4GVj1z1UWz03tXahqsItlRU2KmSpsVFO7G3XvRqXcqIicarZCvqMYhZsbeRf07G+86xSTPfFGr3ueurm9yuX+TkKLZp4hGbLGoxiZ+xto0/Ttd7zAe5XLdyqq8qqqqfIKJtM8o7ASiXVETaqrZETNV5DseEaH1M9nTfd4/1peVU5m8XXbcSpjtedVgiJnh1xEuqIm1V2IiZqp2PCND6mezpvu8a+2l5VTmbxddtx3bCcBpaREWKO77bZX+dIvXxdVizN2Loo5utjH9qvCcBpaRLxR3fxyv86Revi6rFoAba1isahYAAkAAAAAAAAAAAAAAAAAAAAAAY9dRQ1EaxTxMljdmyRqObv5l5zIAGttIPowat5MPl1Fz+rzqrmbmvzTrvvQ15ieGVFJJ5KphfC/iR6bHJytdk5NyqejDHraKGojWKeJksbs2SNRzd+/nKL4InhGavOANn6QfRgxdaTD5dRc/q86q5m5r806770Nd4nhlTRyeSqYXwv4kemx3O12Tk3KpmtS1eUZjS3w/gY+iZBwYcirFEiJdVRERE2qq3yO14RodUz2dN93j/Ul5XJzN4uv3GOKWvbVYV6mZ7OuIl1RE2quxETaqryHY8I0OqZ7Om+7xr7SXlVOZvF1+47thOA0tGn2Ud322yv8AOkXr4uqxZm3F0UR3usjH9qzCcBpaRPso7v45X+dIvXxdVizAN1axWNQsAAdAAAAAAAAAAAQSAAAAAAAAAAAAAAAAAAAAAx62ihqI1iniZLGubJGo5u/fzmQAKzCcAo6JPu8KNXbZzlWR6IvEjluqIWYByIiOAAB0AAAAAAAAAAAAAAAAAAAAAAAAAAAAAAAAAAAAAAAAAAAAAAAAAAAAAAAAAAAAAAAAf//Z;" vertex="1" parent="1">
          <mxGeometry x="270" y="830" width="133.51" height="100" as="geometry" />
        </mxCell>
        <mxCell id="2KoEc0qU2KZLX_1ABQ_1-30" value="Cloud Watch" style="text;html=1;align=center;verticalAlign=middle;whiteSpace=wrap;rounded=0;fontSize=20;" vertex="1" parent="1">
          <mxGeometry x="265" y="940" width="160" height="30" as="geometry" />
        </mxCell>
        <mxCell id="2KoEc0qU2KZLX_1ABQ_1-31" value="Lambda" style="text;html=1;align=center;verticalAlign=middle;whiteSpace=wrap;rounded=0;fontSize=20;" vertex="1" parent="1">
          <mxGeometry x="481.57" y="940" width="160" height="30" as="geometry" />
        </mxCell>
        <mxCell id="2KoEc0qU2KZLX_1ABQ_1-32" value="" style="shape=image;verticalLabelPosition=bottom;labelBackgroundColor=default;verticalAlign=top;aspect=fixed;imageAspect=0;image=data:image/jpeg,/9j/4AAQSkZJRgABAQAAAQABAAD/2wCEAAkGBxAREBANDxAWDhANEA8RDw8PEBIQEBAPFRIWGhYWFRkZHSggGx4xGxMTIT0hJSkrLi4uFyAzODMtNygtLisBCgoKDg0OFhAPGS0dICE3NzgvMisrKy4wMSstNzcrLSstKzcsKysrMDcrKy0tKysrLS0tLS0rKzctLSsrKys3K//AABEIALUBFgMBIgACEQEDEQH/xAAbAAEAAwEBAQEAAAAAAAAAAAAABQYHAQQDAv/EAEgQAAICAQEEAwoMAwQLAAAAAAABAgMEEQUGEiETMUEHFBY0UVRhc5GSFSI1U3GUsbLB0eHwQoGzJDJSoRcjQ2JjcnSCk8Lx/8QAGgEBAQEBAQEBAAAAAAAAAAAAAAUEBgMCAf/EACoRAQABAQUHBAMBAAAAAAAAAAABAgMEBRFREhMUFTIzgVJTcaEhQWIx/9oADAMBAAIRAxEAPwDcQAAAAAAAAAAAAAAAAAABxsagdAAAAAAAAAAAAAAAAAAAAAAAAAAAAAAAAAAAAAAAAAAA42GV3ezemnCioylHprE3XCUlHVLk5P0c0fkzERnL7oomuqKaf9SuftaihpXWxrcupSejZ5fCbC84h7TI8za8bpu22+E5y7XOOmnkXPkj4d+U/Ow99GOq9VZ/iFqjCbPZjar/AC2PwmwvOYe0eE2F5zD2mOd+U/Ow9+I78p+dh76Pniq9H3ymx9c/TY/CbC85h7Tj3nwvOIe0x3vyn52Hvod+U/Ow95Diq9DlFj65+m642RGyKnCSnGS1UovVM+xjm729ixJpK2E6W/jV8a7e2PPkzV9lbRqyao5FM1ZXYuUk9VquTXtNVlaxXCVerrVYVaw9gAPVkAAAAAAAAAAAAAAAAAAAAAAAAAAAAAAAAcZTd8dgbLy7oSzrXXZVBxild0fxJPXmvpRcmZfv8/7Y/RVX/wCx429ezTm2XGx3trs55HgPu/5xL61+g8B93/n5fWiufvtH77TJv49K3y6fclY/Afd/5+X1oeA+7/z8vrRXP32j99o3/wDJy6fcqWLwH3f+fl9aO+A+7/z8vrRXP32j99o3/wDJy6fcqWPwH3f84l9aLxupgY2Piwow5cdFbnwtz43q5ty5/S2ZIaZ3PH/Yl6LbfvM9rC1iqrLLJhxC6TZWe1Ncz8rOjoQNaMAAAAAAAAAAAAAAAAAAAAAAAAAAAAAAAA4zL9/fHH6qv8TUJGX7++Ov1Vf4me9dCnhPf8K4ACc6cAAAAAd/T7TSu534mvW2/eZmv6faaV3O/E16237zNF160rF+xHytKAQKLmgAAAAAAAAAAAAAAAAAAAAAAAAAAAAAAAHJGXb++Ov1Vf4moyMu398dfqq/xM166FPCe/4V0AE904AAAAA7+n2mldzvxNett+8zNf0+00rud+Jr1tv3maLr1pWL9jytKAQKLmgAAAAAAAAAAAAAAAAAAAAAAAAAAAAAAAHJGXb++Ov1Vf4moyMu398dfqq/xM166FPCe/4V0AE904AAAAA7+n2mldzvxNett+8zNf0+00rud+Jr1tv3maLr1pWL9jytKAQKLmgAAAAAAAAAAAAAAAAAAAAAAAAAAAAAAAHGZdv747L1df4moyMd7p+ddXnuNdLsTprfEoza11ly5I8LxEzRlCjhlcUW2dWiOBB/DGT5rL3LfyHwxk+ay9y38jBu6tHRcTZ6pwEH8MZPmsvct/IfDGT5rL3LfyGxVocTZ6pwEH8MZPmsvct/IfDGT5rL3LfyG7q0OJs9U5+n2ml9zzxNets+8zGPhjJ81l7ln5Gwdy26c9nxnODrk7bvitNNaTaXJmi7UTFecpuKW1FdjlTP7XBA4jpuc8AAAAAAAAAAAAAAAAAAAAAAAAAAACv7M3sx78uzAhxcdfSaTaXR2ODSkoPXnpr/AJFg1AAanNQOnOE7qNQOaDQanQOaDQanQOaHdBqc1AaDhPJtjaEcaizJmnKNMeKSj/eaXkKb/pTwl/srvZD8wL8Cp7A37xsy7oKoWRlwTs1mo6aR016n6SPl3UcNNroruTa/ux7P5gXwFO2V3RcK+yNPx6ZTkoxdqSi5PqWqfImd4d4sfCgp3z0c9VCuK4pza69F5Orn1ATAKBR3UsVySnRdXF9U2oPl9CZd8LLruhC6qSnXYuKMl1NAegAAAAAAAAAAAAAAAAAACI3o2qsXEvyP4oQ0rX+K2XKCX82iXKPvlX37m4uyFJxguLJyZQ04owimodfbq/8ANAR20NlSwcHZ+ek3dg2xtyWlq5Rvf+t1/nJL6Cy74benjYtWVjpT6S6iOjXFx1z1bUfS1pozw5O4EJwlCWdlzUlpwzui4v6Vw9RWJZspbMqxLOVuz9pY+PNeRRnLh+xr/tAsO2sza+PTLaDso4K9JTxFVJ8Nfkc9dXL2I+lmRte6jv6mynHg4O2vFlXxylVw8S45v+JryaElv58mZnqZfaj14fyfX/0cP6KAinvNfLZ1GbRju3IyOGEaoxlKEbG2nKWnVDk31+TmeDbWTtjDolm2ZNF8a9HZR0PBHRtaqEtdX29vtIvG2rbRsrZdddve0cq11W5OifRQ4pPlxck/S/Iz9774GDViWN5NmVkTjpSrMmVrb1WsuBNR007Wu0C05i2heqr8PIqoqtprn0d1LsnxSWvWtOxkXu7tHaNubOmd9WRjY3K+2ungj0rT0ri9ebXJs+GdvB/Z8LZuPdCu/Ix6OmvlNRjjVdHHieuv9980kWHYU8GmqvExr6pJLSKjbCU7Jac29Hzb5sCJr2rnZ118MCVeLj4tkqpZFkOllbctOJQT5JL8UfbZO28qvKezc/glbOuVmNkVRcYWxSeqaf8AEtG+R49wc2GOsnZ2RJU305N04qxqPS1S0anHXr/+H4z8mGXtjEWPJWQ2dXkTvtg+KClZHhUNerXkuXpYHdhbU2pn0KyqdWKoSshO6VTm7Jqb0UIt6JKPCm/LqS26W1si2WTi5aj3xhWKMp1pqFkZLVSS7D4dzH5Oh67J/rSObtfKW1f+fH/poD3b+fJuZ6l/ajOtyt6sDExnTk09JY7Zz4ujhP4rUdFq+fYzRd/Pk3M9TL7UULcTeXZ+NiurLjrY7Zy16HpPiNR056ehgW/dvePCzJXRxaejnVU5Sk64QfC+WmqKBuJt3GxLMp5MHNW9GocNanpwynrrr1da9hoOxt6tn5FkqMVaWTrsfKno9VGOr1ZQ+55t3FxLct5UuFW9Gq/iOfOMp8XUv96IDb2bjbRz8aGPFYkVwqyy1KrifEn1Lt05LUme6nsy/p8bNhU76aVGM46OUY8M+LSaX8LXaQ/dA21i50sevCg7LYykuKMHCUtUuGMept6rXXs0LHvLvLm7PuxY2RjPFlVUrJKDcnOMdLUpa6J66Pn5QPJk757MzqJYuXXPF4tEpRhGTrflg0np7C5bobPox8WFeLdLIpk5ThZOUZNqT5pOKXb2FR3r2xsS/GsmnCd7jJ1dHVKFqs7NXotP59ZI9yPHthhSlYmo2XSlUn/g4YptehtMC8gAAAAAAAAAAAAAAAAAAeavApjbPIjXFXWRUZ2qK45RXUm+trkj0gAR1mwsSUpzljVuVs4zsk64tznHXhk/K1q+fpJEAfHJxa7YSqsgrK5rSUJrijJeRp9Z+o0xUFWopQUeFQ0+Ko6aaaeTQ+gA8MtkYzpWK6IdAuqngXRrnryXUjzYm7GDVGca8WuCti4WaQWsovsb69CXAEJHdDZyWneVLXpqjJ+1n2xt2sGucba8SmuyD1jOFUYyi/Kml6WSoAjtp7CxMnTvjHhc48k5x1kl5Nes+2z9mUY8OjoqjTBvVxhFRTflflPWAPhhYVVMFXTXGqCbahCKjFNvVvReltnKcKqE52wrjGdzTsnFJSm0tFxPtPQAPllY8LYSqsirITWkoSWsZLyNEX4J7O8xo/8ADD8iZAEZh7v4dM+kpxaqppNKcK4xlo1o1qkfF7qbO6+8qNX/AMGH5EyAI/B2JiUPiox66W+2uuMX7Uj1ZWJXbF12wjZCXXGcVKL/AJM+wAg6t0NnRlxrDq169XHXn9DJqEEkklol1JdSR+gAAAAAAAAAAAAAAAAAAAAAAAAAAAAAAAAAAAAAAAAAAAAAAAAAAAAAAAAAAAAAAAAAAAAAAAAAAAAAAAAAAAAAAAAAAAAAAAAAAAAAAAAAAAH/2Q==;" vertex="1" parent="1">
          <mxGeometry x="30" y="835" width="138.23" height="90" as="geometry" />
        </mxCell>
        <mxCell id="2KoEc0qU2KZLX_1ABQ_1-33" value="&lt;font style=&quot;font-size: 20px;&quot;&gt;&lt;i&gt;volume gp2&lt;/i&gt;&lt;/font&gt;" style="ellipse;whiteSpace=wrap;html=1;fillColor=#A680B8;" vertex="1" parent="1">
          <mxGeometry x="110" y="780" width="90" height="80" as="geometry" />
        </mxCell>
        <mxCell id="2KoEc0qU2KZLX_1ABQ_1-34" value="" style="shape=image;verticalLabelPosition=bottom;labelBackgroundColor=default;verticalAlign=top;aspect=fixed;imageAspect=0;image=data:image/jpeg,/9j/4AAQSkZJRgABAQAAAQABAAD/2wCEAAkGBxAREBANDxAWDhANEA8RDw8PEBIQEBAPFRIWGhYWFRkZHSggGx4xGxMTIT0hJSkrLi4uFyAzODMtNygtLisBCgoKDg0OFhAPGS0dICE3NzgvMisrKy4wMSstNzcrLSstKzcsKysrMDcrKy0tKysrLS0tLS0rKzctLSsrKys3K//AABEIALUBFgMBIgACEQEDEQH/xAAbAAEAAwEBAQEAAAAAAAAAAAAABQYHAQQDAv/EAEgQAAICAQEEAwoMAwQLAAAAAAABAgMEEQUGEiETMUEHFBY0UVRhc5GSFSI1U3GUsbLB0eHwQoGzJDJSoRcjQ2JjcnSCk8Lx/8QAGgEBAQEBAQEBAAAAAAAAAAAAAAUEBgMCAf/EACoRAQABAQUHBAMBAAAAAAAAAAABAgMEBRFREhMUFTIzgVJTcaEhQWIx/9oADAMBAAIRAxEAPwDcQAAAAAAAAAAAAAAAAAABxsagdAAAAAAAAAAAAAAAAAAAAAAAAAAAAAAAAAAAAAAAAAAA42GV3ezemnCioylHprE3XCUlHVLk5P0c0fkzERnL7oomuqKaf9SuftaihpXWxrcupSejZ5fCbC84h7TI8za8bpu22+E5y7XOOmnkXPkj4d+U/Ow99GOq9VZ/iFqjCbPZjar/AC2PwmwvOYe0eE2F5zD2mOd+U/Ow9+I78p+dh76Pniq9H3ymx9c/TY/CbC85h7Tj3nwvOIe0x3vyn52Hvod+U/Ow95Diq9DlFj65+m642RGyKnCSnGS1UovVM+xjm729ixJpK2E6W/jV8a7e2PPkzV9lbRqyao5FM1ZXYuUk9VquTXtNVlaxXCVerrVYVaw9gAPVkAAAAAAAAAAAAAAAAAAAAAAAAAAAAAAAAcZTd8dgbLy7oSzrXXZVBxild0fxJPXmvpRcmZfv8/7Y/RVX/wCx429ezTm2XGx3trs55HgPu/5xL61+g8B93/n5fWiufvtH77TJv49K3y6fclY/Afd/5+X1oeA+7/z8vrRXP32j99o3/wDJy6fcqWLwH3f+fl9aO+A+7/z8vrRXP32j99o3/wDJy6fcqWPwH3f84l9aLxupgY2Piwow5cdFbnwtz43q5ty5/S2ZIaZ3PH/Yl6LbfvM9rC1iqrLLJhxC6TZWe1Ncz8rOjoQNaMAAAAAAAAAAAAAAAAAAAAAAAAAAAAAAAA4zL9/fHH6qv8TUJGX7++Ov1Vf4me9dCnhPf8K4ACc6cAAAAAd/T7TSu534mvW2/eZmv6faaV3O/E16237zNF160rF+xHytKAQKLmgAAAAAAAAAAAAAAAAAAAAAAAAAAAAAAAHJGXb++Ov1Vf4moyMu398dfqq/xM166FPCe/4V0AE904AAAAA7+n2mldzvxNett+8zNf0+00rud+Jr1tv3maLr1pWL9jytKAQKLmgAAAAAAAAAAAAAAAAAAAAAAAAAAAAAAAHJGXb++Ov1Vf4moyMu398dfqq/xM166FPCe/4V0AE904AAAAA7+n2mldzvxNett+8zNf0+00rud+Jr1tv3maLr1pWL9jytKAQKLmgAAAAAAAAAAAAAAAAAAAAAAAAAAAAAAAHGZdv747L1df4moyMd7p+ddXnuNdLsTprfEoza11ly5I8LxEzRlCjhlcUW2dWiOBB/DGT5rL3LfyHwxk+ay9y38jBu6tHRcTZ6pwEH8MZPmsvct/IfDGT5rL3LfyGxVocTZ6pwEH8MZPmsvct/IfDGT5rL3LfyG7q0OJs9U5+n2ml9zzxNets+8zGPhjJ81l7ln5Gwdy26c9nxnODrk7bvitNNaTaXJmi7UTFecpuKW1FdjlTP7XBA4jpuc8AAAAAAAAAAAAAAAAAAAAAAAAAAACv7M3sx78uzAhxcdfSaTaXR2ODSkoPXnpr/AJFg1AAanNQOnOE7qNQOaDQanQOaDQanQOaHdBqc1AaDhPJtjaEcaizJmnKNMeKSj/eaXkKb/pTwl/srvZD8wL8Cp7A37xsy7oKoWRlwTs1mo6aR016n6SPl3UcNNroruTa/ux7P5gXwFO2V3RcK+yNPx6ZTkoxdqSi5PqWqfImd4d4sfCgp3z0c9VCuK4pza69F5Orn1ATAKBR3UsVySnRdXF9U2oPl9CZd8LLruhC6qSnXYuKMl1NAegAAAAAAAAAAAAAAAAAACI3o2qsXEvyP4oQ0rX+K2XKCX82iXKPvlX37m4uyFJxguLJyZQ04owimodfbq/8ANAR20NlSwcHZ+ek3dg2xtyWlq5Rvf+t1/nJL6Cy74benjYtWVjpT6S6iOjXFx1z1bUfS1pozw5O4EJwlCWdlzUlpwzui4v6Vw9RWJZspbMqxLOVuz9pY+PNeRRnLh+xr/tAsO2sza+PTLaDso4K9JTxFVJ8Nfkc9dXL2I+lmRte6jv6mynHg4O2vFlXxylVw8S45v+JryaElv58mZnqZfaj14fyfX/0cP6KAinvNfLZ1GbRju3IyOGEaoxlKEbG2nKWnVDk31+TmeDbWTtjDolm2ZNF8a9HZR0PBHRtaqEtdX29vtIvG2rbRsrZdddve0cq11W5OifRQ4pPlxck/S/Iz9774GDViWN5NmVkTjpSrMmVrb1WsuBNR007Wu0C05i2heqr8PIqoqtprn0d1LsnxSWvWtOxkXu7tHaNubOmd9WRjY3K+2ungj0rT0ri9ebXJs+GdvB/Z8LZuPdCu/Ix6OmvlNRjjVdHHieuv9980kWHYU8GmqvExr6pJLSKjbCU7Jac29Hzb5sCJr2rnZ118MCVeLj4tkqpZFkOllbctOJQT5JL8UfbZO28qvKezc/glbOuVmNkVRcYWxSeqaf8AEtG+R49wc2GOsnZ2RJU305N04qxqPS1S0anHXr/+H4z8mGXtjEWPJWQ2dXkTvtg+KClZHhUNerXkuXpYHdhbU2pn0KyqdWKoSshO6VTm7Jqb0UIt6JKPCm/LqS26W1si2WTi5aj3xhWKMp1pqFkZLVSS7D4dzH5Oh67J/rSObtfKW1f+fH/poD3b+fJuZ6l/ajOtyt6sDExnTk09JY7Zz4ujhP4rUdFq+fYzRd/Pk3M9TL7UULcTeXZ+NiurLjrY7Zy16HpPiNR056ehgW/dvePCzJXRxaejnVU5Sk64QfC+WmqKBuJt3GxLMp5MHNW9GocNanpwynrrr1da9hoOxt6tn5FkqMVaWTrsfKno9VGOr1ZQ+55t3FxLct5UuFW9Gq/iOfOMp8XUv96IDb2bjbRz8aGPFYkVwqyy1KrifEn1Lt05LUme6nsy/p8bNhU76aVGM46OUY8M+LSaX8LXaQ/dA21i50sevCg7LYykuKMHCUtUuGMept6rXXs0LHvLvLm7PuxY2RjPFlVUrJKDcnOMdLUpa6J66Pn5QPJk757MzqJYuXXPF4tEpRhGTrflg0np7C5bobPox8WFeLdLIpk5ThZOUZNqT5pOKXb2FR3r2xsS/GsmnCd7jJ1dHVKFqs7NXotP59ZI9yPHthhSlYmo2XSlUn/g4YptehtMC8gAAAAAAAAAAAAAAAAAAeavApjbPIjXFXWRUZ2qK45RXUm+trkj0gAR1mwsSUpzljVuVs4zsk64tznHXhk/K1q+fpJEAfHJxa7YSqsgrK5rSUJrijJeRp9Z+o0xUFWopQUeFQ0+Ko6aaaeTQ+gA8MtkYzpWK6IdAuqngXRrnryXUjzYm7GDVGca8WuCti4WaQWsovsb69CXAEJHdDZyWneVLXpqjJ+1n2xt2sGucba8SmuyD1jOFUYyi/Kml6WSoAjtp7CxMnTvjHhc48k5x1kl5Nes+2z9mUY8OjoqjTBvVxhFRTflflPWAPhhYVVMFXTXGqCbahCKjFNvVvReltnKcKqE52wrjGdzTsnFJSm0tFxPtPQAPllY8LYSqsirITWkoSWsZLyNEX4J7O8xo/8ADD8iZAEZh7v4dM+kpxaqppNKcK4xlo1o1qkfF7qbO6+8qNX/AMGH5EyAI/B2JiUPiox66W+2uuMX7Uj1ZWJXbF12wjZCXXGcVKL/AJM+wAg6t0NnRlxrDq169XHXn9DJqEEkklol1JdSR+gAAAAAAAAAAAAAAAAAAAAAAAAAAAAAAAAAAAAAAAAAAAAAAAAAAAAAAAAAAAAAAAAAAAAAAAAAAAAAAAAAAAAAAAAAAAAAAAAAAAAAAAAAAAH/2Q==;" vertex="1" parent="1">
          <mxGeometry x="680" y="840" width="138.23" height="90" as="geometry" />
        </mxCell>
        <mxCell id="2KoEc0qU2KZLX_1ABQ_1-35" value="&lt;font style=&quot;font-size: 20px;&quot;&gt;&lt;i&gt;volume gp3&lt;/i&gt;&lt;/font&gt;" style="ellipse;whiteSpace=wrap;html=1;fillColor=#A680B8;" vertex="1" parent="1">
          <mxGeometry x="770" y="790" width="90" height="80" as="geometry" />
        </mxCell>
        <mxCell id="2KoEc0qU2KZLX_1ABQ_1-38" value="" style="endArrow=classic;html=1;rounded=0;" edge="1" parent="1" source="2KoEc0qU2KZLX_1ABQ_1-32">
          <mxGeometry width="50" height="50" relative="1" as="geometry">
            <mxPoint x="390" y="930" as="sourcePoint" />
            <mxPoint x="260" y="880" as="targetPoint" />
          </mxGeometry>
        </mxCell>
        <mxCell id="2KoEc0qU2KZLX_1ABQ_1-39" value="" style="endArrow=classic;html=1;rounded=0;exitX=1;exitY=0.5;exitDx=0;exitDy=0;" edge="1" parent="1" source="2KoEc0qU2KZLX_1ABQ_1-29">
          <mxGeometry width="50" height="50" relative="1" as="geometry">
            <mxPoint x="431.57" y="920" as="sourcePoint" />
            <mxPoint x="510" y="880" as="targetPoint" />
          </mxGeometry>
        </mxCell>
        <mxCell id="2KoEc0qU2KZLX_1ABQ_1-50" value="" style="endArrow=classic;html=1;rounded=0;" edge="1" parent="1">
          <mxGeometry width="50" height="50" relative="1" as="geometry">
            <mxPoint x="600" y="886" as="sourcePoint" />
            <mxPoint x="670" y="885" as="targetPoint" />
          </mxGeometry>
        </mxCell>
      </root>
    </mxGraphModel>
  </diagram>
</mxfile>
